<svg xmlns="http://www.w3.org/2000/svg" viewBox="0 0 160 160">
  <defs>
    <linearGradient id="bg" x1="0" x2="1" y1="0" y2="1">
      <stop offset="0" stop-color="#f0bd54"/>
      <stop offset="1" stop-color="#295b48"/>
    </linearGradient>
  </defs>
  <rect width="160" height="160" fill="url(#bg)"/>
  <circle cx="80" cy="64" r="34" fill="#d9a77e"/>
  <path d="M33 144c8-34 25-50 47-50s39 16 47 50" fill="#213b31"/>
  <path d="M43 72c-6-26 10-50 37-50 25 0 42 23 38 50-17-14-47-17-75 0z" fill="#2c221e"/>
  <circle cx="68" cy="64" r="5" fill="#223a2d"/>
  <circle cx="94" cy="64" r="5" fill="#223a2d"/>
  <path d="M58 61h21m5 0h21" stroke="#20382f" stroke-width="5" stroke-linecap="round"/>
  <path d="M67 84c10 7 19 7 28 0" fill="none" stroke="#8e4135" stroke-width="4" stroke-linecap="round"/>
</svg>
